<svg viewBox="0 0 119.79 36" xmlns="http://www.w3.org/2000/svg" xmlns:xlink="http://www.w3.org/1999/xlink" width="119.790039" height="36.000000" fill="none" customFrame="#000000">
	<defs>
		<clipPath id="clipPath_1">
			<rect width="112.586021" height="28.799999" x="3.599976" y="3.599976" fill="rgb(255,255,255)" />
		</clipPath>
	</defs>
	<rect id="浅色模式" width="119.790001" height="35.999992" x="0.000000" y="0.000000" fill="rgb(255,255,255)" fill-opacity="0" />
	<g id="新海思logo红黑 1" clip-path="url(#clipPath_1)" customFrame="url(#clipPath_1)">
		<rect id="新海思logo红黑 1" width="112.586021" height="28.799999" x="3.599976" y="3.599976" />
		<g id="_层_1-2">
			<g id="组合 59">
				<path id="矢量 563" d="M18.0021 3.59998C25.9365 3.59998 32.4042 10.0677 32.4042 18.0021C32.4042 19.5696 32.1478 21.0783 31.6813 22.4904L31.5258 22.4904C31.5258 22.4904 19.6789 22.4862 17.8256 22.4526C15.968 22.4231 16.59 20.1958 16.59 20.1958L20.6119 7.79411L15.6318 7.79411L14.2702 12.0009L11.7319 12.0009L14.1736 4.14631L14.1736 4.11689C15.3965 3.78068 16.6783 3.59998 18.0021 3.59998M27.5208 28.7312C24.9783 30.9753 21.6457 32.4 18.0021 32.4C10.0677 32.4 3.59998 25.9323 3.59998 18.0021C3.59998 13.8626 5.36084 10.1223 8.17234 7.49153L8.17234 7.54616L4.06225 20.2588L9.00864 20.2588L11.0763 14.0433L13.6146 14.0433C13.6146 14.0433 10.5258 23.4065 9.66004 26.0667C8.79011 28.7438 11.0847 28.7312 11.0847 28.7312L27.5166 28.7312L27.5208 28.7312ZM21.4103 12.0345L26.3861 12.0345L23.7596 20.2504L18.788 20.2504L21.4145 12.0345L21.4103 12.0345ZM22.192 9.7693L22.8644 7.75629L27.7814 7.75629L27.109 9.7693L22.192 9.7693Z" fill="rgb(205,19,28)" fill-rule="evenodd" />
				<g id="组合 60">
					<path id="矢量 564" d="M39.5485 11.8286L42.1793 11.8286L42.1793 17.0776L48.0418 17.0776L48.0418 11.8286L50.6726 11.8286L50.6726 24.9279L48.0418 24.9279L48.0418 19.1747L42.1793 19.1747L42.1793 24.9279L39.5485 24.9279L39.5485 11.8286Z" fill="rgb(4,0,0)" fill-rule="nonzero" />
					<path id="矢量 565" d="M54.2196 13.6987C53.9968 13.5768 53.8245 13.4045 53.6985 13.1817C53.5766 12.9632 53.5135 12.7153 53.5135 12.4463C53.5135 12.026 53.6522 11.6772 53.9254 11.4125C54.1986 11.1435 54.5516 11.009 54.9802 11.009C55.2576 11.009 55.5098 11.0721 55.7367 11.1939C55.9636 11.3158 56.1401 11.4881 56.2704 11.7067C56.4007 11.9252 56.4637 12.1731 56.4637 12.4505C56.4637 12.7279 56.4007 12.9674 56.2704 13.1817C56.1401 13.4003 55.9594 13.5726 55.7325 13.6987C55.5014 13.8247 55.2534 13.8878 54.9802 13.8878C54.7071 13.8878 54.4423 13.8247 54.2196 13.7029L54.2196 13.6987ZM53.6774 15.1401L56.2746 15.1401L56.2746 24.9278L53.6774 24.9278L53.6774 15.1401L53.6774 15.1401Z" fill="rgb(4,0,0)" fill-rule="nonzero" />
					<path id="矢量 566" d="M60.3847 24.8606C59.6451 24.6967 59.0021 24.4782 58.4515 24.205L59.229 22.1794C59.7249 22.4273 60.2838 22.6291 60.9058 22.7888C61.532 22.9485 62.0867 23.0283 62.5742 23.0283C63.2298 23.0283 63.7341 22.8854 64.0787 22.5954C64.4234 22.3055 64.5999 21.9272 64.5999 21.4566C64.5999 21.0867 64.4864 20.7715 64.2552 20.5026C64.0241 20.2336 63.7299 20.0025 63.3727 19.805C63.0155 19.6074 62.5028 19.3679 61.8388 19.0779C61.1496 18.7753 60.5822 18.4643 60.1284 18.1408C59.6745 17.8172 59.3215 17.4305 59.0693 16.9809C58.8172 16.5312 58.6911 15.9975 58.6911 15.3755C58.6911 14.598 58.8802 13.9298 59.2626 13.3667C59.6451 12.8035 60.1704 12.3791 60.847 12.0849C61.5236 11.7907 62.2969 11.6478 63.171 11.6478C63.8182 11.6478 64.478 11.7235 65.1504 11.8706C65.827 12.0177 66.3691 12.2026 66.7768 12.4253L66.2683 14.535C65.184 14.0055 64.1544 13.7407 63.1836 13.7407C62.6121 13.7407 62.154 13.8458 61.8094 14.0559C61.4648 14.266 61.2925 14.598 61.2925 15.0519C61.2925 15.3461 61.3849 15.6024 61.5656 15.8167C61.7463 16.0311 62.0195 16.237 62.3809 16.4345C62.7423 16.632 63.3139 16.9094 64.0913 17.2582C64.81 17.5818 65.3941 17.9138 65.8438 18.2542C66.2935 18.5904 66.6339 18.9897 66.865 19.4435C67.0962 19.8974 67.2138 20.4437 67.2138 21.0783C67.2138 21.9483 67.0247 22.6837 66.6423 23.2847C66.2641 23.8898 65.7261 24.3437 65.0285 24.6505C64.3309 24.9573 63.5114 25.1128 62.5616 25.1128C61.843 25.1128 61.116 25.0287 60.3763 24.8648L60.3847 24.8606Z" fill="rgb(4,0,0)" fill-rule="nonzero" />
					<path id="矢量 567" d="M70.2229 13.6987C70.0001 13.5768 69.8278 13.4045 69.7018 13.1817C69.5799 12.9632 69.5168 12.7153 69.5168 12.4463C69.5168 12.026 69.6555 11.6772 69.9287 11.4125C70.2019 11.1435 70.5549 11.009 70.9835 11.009C71.2609 11.009 71.513 11.0721 71.74 11.1939C71.9669 11.3158 72.1434 11.4881 72.2737 11.7067C72.404 11.9252 72.467 12.1731 72.467 12.4505C72.467 12.7279 72.404 12.9674 72.2737 13.1817C72.1434 13.4003 71.9627 13.5726 71.7358 13.6987C71.5046 13.8247 71.2567 13.8878 70.9835 13.8878C70.7104 13.8878 70.4456 13.8247 70.2229 13.7029L70.2229 13.6987ZM69.6807 15.1401L72.2779 15.1401L72.2779 24.9278L69.6807 24.9278L69.6807 15.1401L69.6807 15.1401Z" fill="rgb(4,0,0)" fill-rule="nonzero" />
					<path id="矢量 568" d="M75.8962 24.4698C75.476 24.0453 75.2659 23.3771 75.2659 22.4652L75.2659 11.0511L77.863 10.8704L77.863 21.9987C77.863 22.3895 77.9387 22.6669 78.0858 22.8266C78.2329 22.9863 78.4472 23.0661 78.733 23.0661C78.9179 23.0661 79.1322 23.0283 79.3759 22.9485L79.6743 24.7766C79.4348 24.8774 79.1322 24.9615 78.775 25.0203C78.4178 25.0791 78.0732 25.1128 77.7496 25.1128C76.9343 25.1128 76.3207 24.8984 75.9005 24.474L75.8962 24.4698Z" fill="rgb(4,0,0)" fill-rule="nonzero" />
					<path id="矢量 569" d="M81.9437 13.6987C81.721 13.5768 81.5487 13.4045 81.4226 13.1817C81.3007 12.9632 81.2377 12.7153 81.2377 12.4463C81.2377 12.026 81.3764 11.6772 81.6495 11.4125C81.9227 11.1435 82.2757 11.009 82.7044 11.009C82.9817 11.009 83.2339 11.0721 83.4608 11.1939C83.6877 11.3158 83.8643 11.4881 83.9945 11.7067C84.1248 11.9252 84.1879 12.1731 84.1879 12.4505C84.1879 12.7279 84.1248 12.9674 83.9945 13.1817C83.8643 13.4003 83.6835 13.5726 83.4566 13.6987C83.2255 13.8247 82.9775 13.8878 82.7044 13.8878C82.4312 13.8878 82.1664 13.8247 81.9437 13.7029L81.9437 13.6987ZM81.4016 15.1401L83.9987 15.1401L83.9987 24.9278L81.4016 24.9278L81.4016 15.1401L81.4016 15.1401Z" fill="rgb(4,0,0)" fill-rule="nonzero" />
					<path id="矢量 570" d="M88.7645 24.5833C88.0753 24.2345 87.5331 23.6923 87.1381 22.9653C86.743 22.234 86.5455 21.3221 86.5455 20.2252C86.5455 19.1284 86.7473 18.1744 87.1465 17.3801C87.5457 16.5858 88.1089 15.9849 88.8275 15.5688C89.5461 15.157 90.374 14.951 91.3112 14.951C91.8828 14.951 92.4501 15.0225 93.009 15.1654C93.568 15.3083 94.0555 15.4848 94.4799 15.6949L93.8201 17.4852C93.4755 17.3045 93.0973 17.1574 92.6854 17.0439C92.2736 16.9304 91.8954 16.8716 91.5592 16.8716C90.7859 16.8716 90.2017 17.1616 89.7983 17.7373C89.3991 18.3131 89.1973 19.1032 89.1973 20.1118C89.1973 21.1204 89.4117 21.9357 89.8361 22.4316C90.2606 22.9275 90.8615 23.1796 91.639 23.1796C91.9962 23.1796 92.3492 23.1334 92.7022 23.0409C93.0553 22.9485 93.4335 22.8182 93.8369 22.6459L94.3707 24.3185C93.9588 24.5412 93.4839 24.7304 92.9418 24.8859C92.3997 25.0413 91.8029 25.117 91.1515 25.117C90.2522 25.117 89.4579 24.9405 88.7687 24.5917L88.7645 24.5833Z" fill="rgb(4,0,0)" fill-rule="nonzero" />
					<path id="矢量 571" d="M97.9091 24.5496C97.1947 24.1756 96.6316 23.6166 96.2239 22.877C95.8121 22.1331 95.6104 21.2296 95.6104 20.1621C95.6104 19.0947 95.8163 18.1491 96.2239 17.3675C96.6358 16.5816 97.2031 15.9848 97.9344 15.573C98.6656 15.1611 99.5061 14.9552 100.46 14.9552C101.414 14.9552 102.221 15.1569 102.935 15.5646C103.65 15.9722 104.205 16.5606 104.604 17.3296C105.003 18.0987 105.201 19.0107 105.201 20.0655C105.201 21.1203 104.995 22.0533 104.583 22.8097C104.171 23.5662 103.595 24.1377 102.864 24.5286C102.133 24.9194 101.296 25.1127 100.355 25.1127C99.4137 25.1127 98.632 24.9278 97.9175 24.5538L97.9091 24.5496ZM102.528 20.1621C102.528 19.1199 102.351 18.313 101.994 17.7457C101.637 17.1783 101.103 16.8968 100.393 16.8968C99.6826 16.8968 99.1321 17.1825 98.7833 17.7541C98.4345 18.3256 98.2579 19.1157 98.2579 20.1243C98.2579 21.1329 98.4471 21.8432 98.8295 22.3727C99.2077 22.9022 99.7625 23.1628 100.485 23.1628C101.847 23.1628 102.528 22.1626 102.528 20.1579L102.528 20.1621Z" fill="rgb(4,0,0)" fill-rule="nonzero" />
					<path id="矢量 572" d="M107.277 17.6197C107.277 16.7077 107.251 15.884 107.205 15.1402L109.668 15.1402C109.706 15.3377 109.739 15.5898 109.773 15.8966C109.807 16.1992 109.828 16.4556 109.84 16.6615C110.147 16.3169 110.441 16.0269 110.723 15.7874C111.004 15.5478 111.345 15.3503 111.744 15.1906C112.143 15.0309 112.605 14.951 113.122 14.951C113.757 14.951 114.303 15.0897 114.761 15.3713C115.219 15.6529 115.572 16.0689 115.82 16.6237C116.068 17.1784 116.19 17.855 116.19 18.6493L116.19 24.9279L113.614 24.9279L113.614 18.8384C113.614 18.2122 113.496 17.7457 113.261 17.4432C113.026 17.1406 112.669 16.9893 112.194 16.9893C111.752 16.9893 111.349 17.0985 110.975 17.3213C110.605 17.5398 110.239 17.8382 109.874 18.2122L109.874 24.9237L107.277 24.9237L107.277 17.6155L107.277 17.6197Z" fill="rgb(4,0,0)" fill-rule="nonzero" />
				</g>
			</g>
		</g>
	</g>
</svg>
